<mxfile host="app.diagrams.net" modified="2023-04-08T12:59:54.901Z" agent="Mozilla/5.0 (Windows NT 10.0; Win64; x64) AppleWebKit/537.36 (KHTML, like Gecko) Chrome/110.0.0.0 Safari/537.36 OPR/96.0.0.0" etag="yL5fGmczhG6KqP-ezcq0" version="21.1.5">
  <diagram name="Страница 1" id="FCcypb6QBkPyFezq1xVp">
    <mxGraphModel dx="2220" dy="758" grid="1" gridSize="10" guides="1" tooltips="1" connect="1" arrows="1" fold="1" page="1" pageScale="1" pageWidth="827" pageHeight="1169" math="0" shadow="0">
      <root>
        <mxCell id="0" />
        <mxCell id="1" parent="0" />
        <mxCell id="bHebGfICqVNfRwsqQ-M9-8" style="edgeStyle=orthogonalEdgeStyle;rounded=0;orthogonalLoop=1;jettySize=auto;html=1;entryX=0.5;entryY=0;entryDx=0;entryDy=0;" edge="1" parent="1" source="bHebGfICqVNfRwsqQ-M9-1" target="bHebGfICqVNfRwsqQ-M9-7">
          <mxGeometry relative="1" as="geometry" />
        </mxCell>
        <mxCell id="bHebGfICqVNfRwsqQ-M9-1" value="Start" style="ellipse;whiteSpace=wrap;html=1;" vertex="1" parent="1">
          <mxGeometry x="354" y="20" width="120" height="80" as="geometry" />
        </mxCell>
        <mxCell id="bHebGfICqVNfRwsqQ-M9-5" style="edgeStyle=orthogonalEdgeStyle;rounded=0;orthogonalLoop=1;jettySize=auto;html=1;" edge="1" parent="1" source="bHebGfICqVNfRwsqQ-M9-2" target="bHebGfICqVNfRwsqQ-M9-4">
          <mxGeometry relative="1" as="geometry" />
        </mxCell>
        <mxCell id="bHebGfICqVNfRwsqQ-M9-2" value="string[] base = { &quot;Tomas&quot;, &quot;Sam&quot;, &quot;Bob&quot; };" style="rounded=1;whiteSpace=wrap;html=1;" vertex="1" parent="1">
          <mxGeometry x="320" y="260" width="190" height="60" as="geometry" />
        </mxCell>
        <mxCell id="bHebGfICqVNfRwsqQ-M9-10" style="edgeStyle=orthogonalEdgeStyle;rounded=0;orthogonalLoop=1;jettySize=auto;html=1;" edge="1" parent="1" source="bHebGfICqVNfRwsqQ-M9-4" target="bHebGfICqVNfRwsqQ-M9-14">
          <mxGeometry relative="1" as="geometry">
            <mxPoint x="40" y="650" as="targetPoint" />
          </mxGeometry>
        </mxCell>
        <mxCell id="bHebGfICqVNfRwsqQ-M9-11" style="edgeStyle=orthogonalEdgeStyle;rounded=0;orthogonalLoop=1;jettySize=auto;html=1;entryX=0.5;entryY=0;entryDx=0;entryDy=0;" edge="1" parent="1" source="bHebGfICqVNfRwsqQ-M9-4" target="bHebGfICqVNfRwsqQ-M9-15">
          <mxGeometry relative="1" as="geometry">
            <mxPoint x="800" y="640" as="targetPoint" />
          </mxGeometry>
        </mxCell>
        <mxCell id="bHebGfICqVNfRwsqQ-M9-18" style="edgeStyle=orthogonalEdgeStyle;rounded=0;orthogonalLoop=1;jettySize=auto;html=1;entryX=0.5;entryY=0;entryDx=0;entryDy=0;" edge="1" parent="1" source="bHebGfICqVNfRwsqQ-M9-4" target="bHebGfICqVNfRwsqQ-M9-20">
          <mxGeometry relative="1" as="geometry">
            <mxPoint x="415" y="892" as="targetPoint" />
          </mxGeometry>
        </mxCell>
        <mxCell id="bHebGfICqVNfRwsqQ-M9-4" value="base.length[numbers] =&amp;lt; 3" style="rhombus;whiteSpace=wrap;html=1;" vertex="1" parent="1">
          <mxGeometry x="308" y="410" width="214" height="210" as="geometry" />
        </mxCell>
        <mxCell id="bHebGfICqVNfRwsqQ-M9-9" style="edgeStyle=orthogonalEdgeStyle;rounded=0;orthogonalLoop=1;jettySize=auto;html=1;entryX=0.5;entryY=0;entryDx=0;entryDy=0;" edge="1" parent="1" source="bHebGfICqVNfRwsqQ-M9-7" target="bHebGfICqVNfRwsqQ-M9-2">
          <mxGeometry relative="1" as="geometry" />
        </mxCell>
        <mxCell id="bHebGfICqVNfRwsqQ-M9-7" value="numbers = 0&lt;br&gt;rightmass = 0&lt;br&gt;a = 0" style="rounded=1;whiteSpace=wrap;html=1;" vertex="1" parent="1">
          <mxGeometry x="354" y="150" width="120" height="60" as="geometry" />
        </mxCell>
        <mxCell id="bHebGfICqVNfRwsqQ-M9-12" value="Yes" style="text;html=1;strokeColor=none;fillColor=none;align=center;verticalAlign=middle;whiteSpace=wrap;rounded=0;" vertex="1" parent="1">
          <mxGeometry x="650" y="480" width="60" height="30" as="geometry" />
        </mxCell>
        <mxCell id="bHebGfICqVNfRwsqQ-M9-13" value="No" style="text;html=1;strokeColor=none;fillColor=none;align=center;verticalAlign=middle;whiteSpace=wrap;rounded=0;" vertex="1" parent="1">
          <mxGeometry x="130" y="480" width="60" height="30" as="geometry" />
        </mxCell>
        <mxCell id="bHebGfICqVNfRwsqQ-M9-16" style="edgeStyle=orthogonalEdgeStyle;rounded=0;orthogonalLoop=1;jettySize=auto;html=1;" edge="1" parent="1" source="bHebGfICqVNfRwsqQ-M9-14">
          <mxGeometry relative="1" as="geometry">
            <mxPoint x="420" y="360" as="targetPoint" />
            <Array as="points">
              <mxPoint x="-160" y="710" />
            </Array>
          </mxGeometry>
        </mxCell>
        <mxCell id="bHebGfICqVNfRwsqQ-M9-14" value="numbers = numbers + 1" style="rounded=1;whiteSpace=wrap;html=1;" vertex="1" parent="1">
          <mxGeometry y="680" width="120" height="60" as="geometry" />
        </mxCell>
        <mxCell id="bHebGfICqVNfRwsqQ-M9-17" style="edgeStyle=orthogonalEdgeStyle;rounded=0;orthogonalLoop=1;jettySize=auto;html=1;" edge="1" parent="1" source="bHebGfICqVNfRwsqQ-M9-15">
          <mxGeometry relative="1" as="geometry">
            <mxPoint x="420" y="360" as="targetPoint" />
            <Array as="points">
              <mxPoint x="980" y="720" />
              <mxPoint x="980" y="360" />
            </Array>
          </mxGeometry>
        </mxCell>
        <mxCell id="bHebGfICqVNfRwsqQ-M9-15" value="string[] right = base[a]&lt;br&gt;a = a + 1" style="rounded=1;whiteSpace=wrap;html=1;" vertex="1" parent="1">
          <mxGeometry x="710" y="690" width="230" height="60" as="geometry" />
        </mxCell>
        <mxCell id="bHebGfICqVNfRwsqQ-M9-22" style="edgeStyle=orthogonalEdgeStyle;rounded=0;orthogonalLoop=1;jettySize=auto;html=1;entryX=0.5;entryY=0;entryDx=0;entryDy=0;" edge="1" parent="1" source="bHebGfICqVNfRwsqQ-M9-20" target="bHebGfICqVNfRwsqQ-M9-21">
          <mxGeometry relative="1" as="geometry" />
        </mxCell>
        <mxCell id="bHebGfICqVNfRwsqQ-M9-20" value="print (right[])" style="shape=document;whiteSpace=wrap;html=1;boundedLbl=1;" vertex="1" parent="1">
          <mxGeometry x="355" y="900" width="120" height="80" as="geometry" />
        </mxCell>
        <mxCell id="bHebGfICqVNfRwsqQ-M9-21" value="END" style="ellipse;whiteSpace=wrap;html=1;" vertex="1" parent="1">
          <mxGeometry x="354" y="1080" width="120" height="80" as="geometry" />
        </mxCell>
      </root>
    </mxGraphModel>
  </diagram>
</mxfile>
